<svg width="132" height="29" viewBox="0 0 132 29" fill="none" xmlns="http://www.w3.org/2000/svg">
<path d="M19.8901 14.1608C19.8901 11.4916 17.7263 9.32774 15.0571 9.32774C12.3879 9.32774 10.2241 11.4916 10.2241 14.1608C10.2241 16.8299 12.3879 18.9938 15.0571 18.9938C17.7263 18.9938 19.8901 16.8299 19.8901 14.1608ZM14.2757 11.4238C13.4468 11.868 12.8482 12.5186 12.4732 13.0226C12.331 13.2137 12.0284 13.0802 12.0748 12.8468C12.3603 11.4206 13.372 11.0607 14.1538 11.0055C14.3924 10.9887 14.4864 11.3109 14.2757 11.4238ZM11.0998 9.49443L9.29349 7.78733C9.50387 7.40502 9.63422 6.97239 9.63422 6.50517C9.63422 5.02521 8.43557 3.82657 6.95527 3.82657C5.47496 3.82657 4.27422 5.02451 4.27422 6.50517C4.27422 7.98582 5.47461 9.18481 6.95527 9.18481C7.47701 9.18481 7.95996 9.0293 8.37197 8.7714L10.1759 10.4768C10.4481 10.1161 10.756 9.78588 11.0998 9.49443ZM6.79102 4.94833C6.18122 5.27507 5.74125 5.75348 5.46553 6.12426C5.36104 6.26474 5.13809 6.16654 5.17268 5.99496C5.38271 4.94623 6.1267 4.68134 6.70156 4.64081C6.87664 4.62823 6.94583 4.86516 6.79102 4.94833ZM18.7407 9.28091L21.1412 5.24153C21.3774 5.30897 21.6227 5.3579 21.8799 5.3579C23.363 5.3579 24.5617 4.15855 24.5617 2.67825C24.5617 1.19829 23.363 0 21.8799 0C20.3996 0 19.2013 1.19794 19.2013 2.67825C19.2013 3.41316 19.4977 4.07713 19.9768 4.56183L17.584 8.59003C17.995 8.77595 18.3829 9.00869 18.7407 9.28091ZM20.1959 2.07998C20.4059 1.03125 21.1499 0.766362 21.7248 0.725825C21.9002 0.713244 21.9694 0.950177 21.8142 1.03335C21.2044 1.36009 20.7645 1.8385 20.4887 2.20928C20.3843 2.34976 20.1613 2.25156 20.1959 2.07998ZM27.0194 12.6626C25.8669 12.6626 24.8909 13.3951 24.5121 14.4159L21.1772 14.0867C21.1772 14.1118 21.181 14.1359 21.181 14.1608C21.181 14.5955 21.1331 15.0201 21.0465 15.43L24.38 15.7592C24.5816 17.0382 25.6827 18.0188 27.0191 18.0188C28.499 18.0188 29.697 16.8208 29.697 15.3409C29.697 13.862 28.499 12.6626 27.0194 12.6626ZM26.8898 13.6932C26.28 14.0199 25.84 14.4983 25.5643 14.8691C25.4598 15.0096 25.2368 14.9114 25.2714 14.7398C25.4814 13.6911 26.2254 13.4262 26.8003 13.3857C26.9757 13.3734 27.0449 13.61 26.8898 13.6932ZM17.8164 23.197L17.0707 19.939C16.6499 20.0855 16.2121 20.1907 15.7553 20.2431L16.5021 23.5014C15.6459 23.9494 15.055 24.8346 15.055 25.8683C15.055 27.3483 16.253 28.5455 17.7361 28.5455C19.216 28.5455 20.414 27.3476 20.414 25.8683C20.4157 24.4156 19.2583 23.2397 17.8164 23.197ZM17.4485 24.387C16.8386 24.7137 16.3987 25.1921 16.123 25.5629C16.0185 25.7034 15.7955 25.6052 15.8301 25.4336C16.0401 24.3849 16.7841 24.12 17.359 24.0794C17.5344 24.0668 17.6036 24.3038 17.4485 24.387ZM9.07159 15.4541L4.92037 16.8449C4.44127 16.1132 3.61689 15.6281 2.6786 15.6281C1.19829 15.6281 0 16.8268 0 18.3067C0 19.7884 1.19794 20.9871 2.6786 20.9871C4.15786 20.9871 5.35894 19.7884 5.35894 18.3067C5.35894 18.2449 5.34566 18.1879 5.34077 18.1271L9.50527 16.7328C9.31726 16.3274 9.16804 15.9007 9.07159 15.4541ZM2.53812 16.8285C1.92831 17.1553 1.48834 17.6337 1.21262 18.0044C1.10813 18.1449 0.885178 18.0467 0.919774 17.8751C1.1298 16.8264 1.8738 16.5615 2.44865 16.521C2.62408 16.5084 2.69327 16.7453 2.53812 16.8285Z" fill="#00ADB5"/>
<path d="M50.371 8.63993C52.2835 8.63993 53.4379 9.72541 53.4379 11.7413V13.9122C53.4379 15.7558 52.3008 16.9964 50.371 16.9964H48.9237V19.8565C48.9237 19.9427 48.8548 20.0116 48.7687 20.0116H46.7872C46.7183 20.0116 46.6666 19.9427 46.6666 19.8565V8.795C46.6666 8.70885 46.7183 8.63993 46.7872 8.63993H50.371ZM51.1808 13.3954V12.2582C51.1808 11.0693 50.6295 10.9487 49.4234 10.9487H48.9237V14.7393H49.4234C50.371 14.7393 51.1808 14.567 51.1808 13.3954ZM52.4041 13.7916V11.6379C52.4041 9.74264 50.9396 9.58757 50.147 9.58757H47.821C47.7866 9.58757 47.7176 9.63926 47.7176 9.69095V18.9606C47.7176 19.0812 47.9244 19.0812 47.9244 18.9606V16.0315H49.992C51.5082 16.0315 52.4041 15.4974 52.4041 13.7916ZM47.9244 9.81156H50.147C52.0596 9.81156 52.1802 11.0693 52.1802 11.6379V13.7916C52.1802 15.5491 51.0775 15.7903 49.992 15.7903H47.9244V9.81156ZM57.1596 8.72608L58.6586 11.6207L60.1231 8.72608C60.1748 8.63993 60.192 8.63993 60.2609 8.63993H62.1907C62.2941 8.63993 62.363 8.74331 62.3285 8.82946L59.8302 14.6359V19.8565C59.8302 19.9427 59.7613 20.0116 59.6751 20.0116H57.642C57.5903 20.0116 57.5214 19.9427 57.5214 19.8565V14.6359L54.9542 8.86392C54.9197 8.74331 54.9714 8.63993 55.092 8.63993H57.0217C57.0907 8.63993 57.1079 8.63993 57.1596 8.72608ZM58.7447 14.2396L60.8984 9.75987C60.9501 9.65649 60.7778 9.57034 60.7089 9.69095L58.6586 13.9812L56.5565 9.69095C56.4876 9.57034 56.2981 9.65649 56.3498 9.7771L58.5552 14.2396V18.995C58.5552 19.1156 58.7447 19.1329 58.7447 18.995V14.2396ZM66.4464 10.7937H63.9998C63.9137 10.7937 63.8447 10.7247 63.8447 10.6386V8.795C63.8447 8.70885 63.9137 8.63993 63.9998 8.63993H71.1846C71.2708 8.63993 71.3397 8.70885 71.3397 8.795V10.6386C71.3397 10.7247 71.2708 10.7937 71.1846 10.7937H68.738V19.8565C68.738 19.9427 68.6691 20.0116 68.5829 20.0116H66.6015C66.5154 20.0116 66.4464 19.9427 66.4464 19.8565V10.7937ZM70.1336 9.58757H64.9302C64.8096 9.58757 64.8096 9.81156 64.9302 9.81156H67.4802V18.9433C67.4802 19.064 67.7042 19.064 67.7042 18.9433V9.81156H70.1336C70.3059 9.81156 70.2887 9.58757 70.1336 9.58757ZM78.8002 13.1197V8.795C78.8002 8.70885 78.8691 8.63993 78.9553 8.63993H80.9195C81.0056 8.63993 81.0745 8.70885 81.0745 8.795V19.8565C81.0745 19.9427 81.0056 20.0116 80.9195 20.0116H78.9553C78.8691 20.0116 78.8002 19.9427 78.8002 19.8565V15.2734H76.009V19.8565C76.009 19.9427 75.94 20.0116 75.8539 20.0116H73.8897C73.8036 20.0116 73.7519 19.9427 73.7519 19.8565V8.795C73.7519 8.70885 73.8036 8.63993 73.8897 8.63993H75.8539C75.94 8.63993 76.009 8.70885 76.009 8.795V13.1197H78.8002ZM74.7512 18.9433C74.7512 19.0812 74.9752 19.064 74.9752 18.9433V14.3258H79.8168V18.9433C79.8168 19.064 80.0063 19.0812 80.0063 18.9433V9.67372C80.0063 9.55311 79.8168 9.51865 79.8168 9.67372V14.0845H74.9752V9.67372C74.9752 9.55311 74.7512 9.55311 74.7512 9.67372V18.9433ZM88.0354 8.48486C89.5171 8.48486 90.5509 8.81223 91.2057 9.51865C91.7225 10.0872 91.9638 10.897 91.9638 12.0514V16.5829C91.9638 17.7717 91.7225 18.5988 91.2057 19.1501C90.5337 19.8393 89.5171 20.1839 88.0354 20.1839C86.5019 20.1839 85.5026 19.8393 84.8479 19.1501C84.3482 18.5988 84.0725 17.7717 84.0725 16.5829V12.0514C84.0725 10.897 84.3482 10.0872 84.8479 9.50142C85.5198 8.81223 86.5364 8.48486 88.0354 8.48486ZM89.6722 16.066V12.62C89.6722 11.1038 88.8624 10.7937 88.1215 10.7937H87.9148C86.812 10.7937 86.3813 11.5001 86.3813 12.62V16.066C86.3813 17.5822 87.1911 17.9096 87.9148 17.9096H88.1215C89.2242 17.9096 89.655 17.1687 89.6722 16.066ZM85.158 12.172V16.445C85.158 17.2548 85.3647 17.9268 85.8472 18.4265C86.2952 18.8744 86.9843 19.1156 87.8286 19.1156H88.2766C89.8962 19.1156 90.9472 18.0819 90.9472 16.445V12.172C90.9472 10.4146 90.0168 9.46696 88.2766 9.46696H87.8286C86.0712 9.46696 85.158 10.4146 85.158 12.172ZM88.2766 18.8917H87.8286C87.0188 18.8917 86.4158 18.6849 85.985 18.2542C85.5543 17.8234 85.3303 17.2204 85.3303 16.445V12.172C85.3303 10.5352 86.209 9.67372 87.8286 9.67372H88.2766C89.9134 9.67372 90.7232 10.518 90.7232 12.172V16.445C90.7232 17.1687 90.4992 17.8234 90.034 18.2714C89.586 18.6504 88.983 18.8917 88.2766 18.8917ZM99.6827 8.795C99.6827 8.70885 99.7516 8.63993 99.8378 8.63993H101.819C101.905 8.63993 101.974 8.70885 101.974 8.795V19.8565C101.974 19.9427 101.905 20.0116 101.819 20.0116H99.9067C99.8378 20.0116 99.7689 19.9771 99.7516 19.9254L97.2361 14.2568V19.8565C97.2361 19.9427 97.1672 20.0116 97.081 20.0116H95.1168C95.0307 20.0116 94.979 19.9427 94.979 19.8565V8.795C94.979 8.70885 95.0307 8.63993 95.1168 8.63993H97.1499C97.2188 8.63993 97.2533 8.69162 97.2705 8.72608L99.6827 14.2913V8.795ZM100.923 18.9778V9.67372C100.923 9.55311 100.699 9.51865 100.699 9.67372V18.5298L96.2023 9.63926C96.1506 9.57034 96.0128 9.57034 96.0128 9.67372V18.9606C96.0128 19.1156 96.2195 19.1156 96.2195 18.9606V10.1217L100.699 18.995C100.768 19.1156 100.923 19.0812 100.923 18.9778ZM111.709 11.5862C111.709 12.2582 111.606 12.844 111.365 13.2747C112.019 13.895 112.295 14.8943 112.295 16.29C112.295 17.7717 111.985 18.8227 111.278 19.3741C110.606 19.9082 109.659 20.0116 108.711 20.0116H105.351C105.265 20.0116 105.213 19.9427 105.213 19.8565V8.795C105.213 8.70885 105.265 8.63993 105.351 8.63993H108.108C109.038 8.63993 110.003 8.70885 110.658 9.1396C111.468 9.65649 111.709 10.5869 111.709 11.5862ZM107.488 10.897V12.4477H108.539C109.09 12.4477 109.383 12.2754 109.383 11.6724C109.383 11.0693 108.935 10.897 108.177 10.897H107.488ZM108.143 17.7545C109.09 17.7545 109.986 17.341 109.986 16.2383C109.986 15.4112 109.4 14.7565 108.522 14.7565H107.488V17.7545H108.143ZM106.213 9.72541V18.9089C106.213 18.995 106.282 19.0295 106.351 19.0295H108.659C110.331 19.0295 111.33 18.1852 111.33 16.3761C111.33 15.0839 111.037 13.74 109.693 13.3609C110.486 13.1024 110.693 12.3099 110.693 11.4656C110.693 10.0872 109.917 9.58757 108.522 9.58757H106.351C106.247 9.58757 106.213 9.63926 106.213 9.72541ZM108.401 18.8227H106.437V13.516H108.866C110.641 13.516 111.089 14.6704 111.089 16.3761C111.089 18.1163 110.141 18.8917 108.401 18.8227ZM110.486 11.4656C110.486 12.8612 109.9 13.292 108.487 13.292H106.437V9.81156H108.522C109.538 9.81156 110.486 10.0011 110.486 11.4656ZM117.274 8.74331C117.292 8.69162 117.326 8.63993 117.395 8.63993H119.531C119.6 8.63993 119.635 8.69162 119.652 8.74331L122.633 19.8221C122.65 19.9254 122.581 20.0116 122.478 20.0116H120.514C120.462 20.0116 120.41 19.9771 120.393 19.9082L119.721 17.496H117.205L116.551 19.9082C116.533 19.9771 116.499 20.0116 116.43 20.0116H114.449C114.345 20.0116 114.276 19.9254 114.294 19.8221L117.274 8.74331ZM117.757 15.3596H119.187L118.446 12.7579L117.757 15.3596ZM120.41 16.3761L121.203 18.9606C121.237 19.064 121.427 19.0467 121.375 18.9089L118.618 9.74264C118.567 9.51865 118.274 9.50142 118.222 9.74264L115.551 18.9089C115.5 19.0295 115.689 19.0812 115.741 18.9778L116.499 16.3761H120.41ZM116.551 16.1521L118.429 9.81156L120.341 16.1521H116.551ZM126.337 8.72608L127.836 11.6207L129.301 8.72608C129.352 8.63993 129.37 8.63993 129.439 8.63993H131.368C131.472 8.63993 131.541 8.74331 131.506 8.82946L129.008 14.6359V19.8565C129.008 19.9427 128.939 20.0116 128.853 20.0116H126.82C126.768 20.0116 126.699 19.9427 126.699 19.8565V14.6359L124.132 8.86392C124.097 8.74331 124.149 8.63993 124.27 8.63993H126.199C126.268 8.63993 126.286 8.63993 126.337 8.72608ZM127.922 14.2396L130.076 9.75987C130.128 9.65649 129.955 9.57034 129.887 9.69095L127.836 13.9812L125.734 9.69095C125.665 9.57034 125.476 9.65649 125.527 9.7771L127.733 14.2396V18.995C127.733 19.1156 127.922 19.1329 127.922 18.995V14.2396Z" fill="#41A2FF"/>
</svg>
